<svg width="19" height="19" viewBox="0 0 19 19" fill="none" xmlns="http://www.w3.org/2000/svg">
<g clip-path="url(#clip0_44_635)">
<path d="M7.24611 4.28125C8.24915 2.48259 8.75027 1.58325 9.49998 1.58325C10.2497 1.58325 10.7508 2.48259 11.7539 4.28125L12.0135 4.74675C12.2985 5.25817 12.441 5.51388 12.6627 5.6825C12.8844 5.85113 13.1614 5.91367 13.7156 6.03875L14.2191 6.15275C16.1666 6.59371 17.1396 6.81379 17.3715 7.55875C17.6027 8.30292 16.9393 9.07954 15.6116 10.632L15.2681 11.0334C14.8912 11.4743 14.702 11.6952 14.6173 11.9675C14.5326 12.2407 14.5611 12.5352 14.6181 13.1234L14.6704 13.6593C14.8706 15.7311 14.9712 16.7666 14.3648 17.2266C13.7584 17.6873 12.8464 17.267 11.0239 16.4278L10.5513 16.2109C10.0336 15.9718 9.77469 15.853 9.49998 15.853C9.22527 15.853 8.9664 15.9718 8.44865 16.2109L7.97682 16.4278C6.15361 17.267 5.24161 17.6865 4.63598 17.2274C4.02877 16.7666 4.12932 15.7311 4.32961 13.6593L4.38186 13.1242C4.43886 12.5352 4.46736 12.2407 4.38186 11.9683C4.29794 11.6952 4.10873 11.4743 3.7319 11.0342L3.38832 10.632C2.06069 9.08034 1.39727 8.30371 1.62844 7.55875C1.8604 6.81379 2.83415 6.59292 4.78165 6.15275L5.28515 6.03875C5.83852 5.91367 6.11482 5.85113 6.33727 5.6825C6.55894 5.51388 6.70144 5.25817 6.98644 4.74675L7.24611 4.28125Z" stroke="white" stroke-width="1.5"/>
</g>
<defs>
<clipPath id="clip0_44_635">
<rect width="19" height="19" fill="white"/>
</clipPath>
</defs>
</svg>
