<svg width="25" height="30" viewBox="0 0 25 30" fill="none" xmlns="http://www.w3.org/2000/svg">
<path d="M25 24.2857V25.7143H0V24.2857L2.77778 21.4286V12.8571C2.77778 8.42857 5.59722 4.52857 9.72222 3.27143V2.85714C9.72222 2.09938 10.0149 1.37266 10.5358 0.836838C11.0567 0.301019 11.7633 0 12.5 0C13.2367 0 13.9432 0.301019 14.4642 0.836838C14.9851 1.37266 15.2778 2.09938 15.2778 2.85714V3.27143C19.4028 4.52857 22.2222 8.42857 22.2222 12.8571V21.4286L25 24.2857ZM15.2778 27.1429C15.2778 27.9006 14.9851 28.6273 14.4642 29.1632C13.9432 29.699 13.2367 30 12.5 30C11.7633 30 11.0567 29.699 10.5358 29.1632C10.0149 28.6273 9.72222 27.9006 9.72222 27.1429" fill="url(#paint0_linear_337_173)"/>
<defs>
<linearGradient id="paint0_linear_337_173" x1="12.5" y1="0" x2="12.5" y2="30" gradientUnits="userSpaceOnUse">
<stop stop-color="#FFE627"/>
<stop offset="1" stop-color="#FEB203"/>
</linearGradient>
</defs>
</svg>
