<svg width="20" height="20" viewBox="0 0 20 20" fill="none" xmlns="http://www.w3.org/2000/svg">
<path d="M0.833008 16.4166C0.833008 17.9749 2.02467 19.1666 3.58301 19.1666H16.4163C17.9747 19.1666 19.1663 17.9749 19.1663 16.4166V9.08325H0.833008V16.4166ZM16.4163 2.66659H14.583V1.74992C14.583 1.19992 14.2163 0.833252 13.6663 0.833252C13.1163 0.833252 12.7497 1.19992 12.7497 1.74992V2.66659H7.24967V1.74992C7.24967 1.19992 6.88301 0.833252 6.33301 0.833252C5.78301 0.833252 5.41634 1.19992 5.41634 1.74992V2.66659H3.58301C2.02467 2.66659 0.833008 3.85825 0.833008 5.41659V7.24992H19.1663V5.41659C19.1663 3.85825 17.9747 2.66659 16.4163 2.66659Z" fill="#6839A7"/>
</svg>
