<svg width="16" height="16" viewBox="0 0 16 16" fill="none" xmlns="http://www.w3.org/2000/svg">
<path d="M6.66665 1.33325H1.99998C1.59998 1.33325 1.33331 1.59992 1.33331 1.99992V6.66659C1.33331 7.06659 1.59998 7.33325 1.99998 7.33325H6.66665C7.06665 7.33325 7.33331 7.06659 7.33331 6.66659V1.99992C7.33331 1.59992 7.06665 1.33325 6.66665 1.33325ZM6.66665 8.66659H1.99998C1.59998 8.66659 1.33331 8.93325 1.33331 9.33325V13.9999C1.33331 14.3999 1.59998 14.6666 1.99998 14.6666H6.66665C7.06665 14.6666 7.33331 14.3999 7.33331 13.9999V9.33325C7.33331 8.93325 7.06665 8.66659 6.66665 8.66659ZM14 1.33325H9.33331C8.93331 1.33325 8.66665 1.59992 8.66665 1.99992V6.66659C8.66665 7.06659 8.93331 7.33325 9.33331 7.33325H14C14.4 7.33325 14.6666 7.06659 14.6666 6.66659V1.99992C14.6666 1.59992 14.4 1.33325 14 1.33325ZM14 8.66659H9.33331C8.93331 8.66659 8.66665 8.93325 8.66665 9.33325V13.9999C8.66665 14.3999 8.93331 14.6666 9.33331 14.6666H14C14.4 14.6666 14.6666 14.3999 14.6666 13.9999V9.33325C14.6666 8.93325 14.4 8.66659 14 8.66659Z" fill="white"/>
</svg>
