<svg xmlns="http://www.w3.org/2000/svg" fill="none" viewBox="17 20.44 67.44 67.44">
  <circle cx="50.7178" cy="54.1533" r="30.7178" stroke="#F2F3F9" stroke-width="6" />
  <g filter="url(#filter0_d_366_72)">
    <path
      d="M50.7178 23.4355C67.6827 23.4355 81.4355 37.1884 81.4355 54.1533C81.4355 71.1183 67.6827 84.8711 50.7178 84.8711C33.7528 84.8711 20 71.1183 20 54.1533"
      stroke="#FFBF15" stroke-width="6" stroke-linecap="round" />
  </g>
  <path
    d="M37.4564 51.1465V43.1465H38.9057V49.9316H42.4291V51.1465H37.4564ZM46.2807 51.2637C45.6791 51.2637 45.1596 51.1387 44.7221 50.8887C44.2872 50.6361 43.9525 50.2793 43.7182 49.8184C43.4838 49.3548 43.3666 48.8092 43.3666 48.1816C43.3666 47.5645 43.4838 47.0228 43.7182 46.5566C43.9551 46.0879 44.2859 45.7233 44.7104 45.4629C45.1348 45.1999 45.6335 45.0684 46.2064 45.0684C46.5762 45.0684 46.9252 45.1283 47.2533 45.248C47.5841 45.3652 47.8757 45.5475 48.1283 45.7949C48.3835 46.0423 48.5841 46.3574 48.7299 46.7402C48.8757 47.1204 48.9486 47.5736 48.9486 48.0996V48.5332H44.0307V47.5801H47.5932C47.5906 47.3092 47.532 47.0684 47.4174 46.8574C47.3028 46.6439 47.1426 46.4759 46.9369 46.3535C46.7338 46.2311 46.4968 46.1699 46.226 46.1699C45.9369 46.1699 45.683 46.2402 45.4643 46.3809C45.2455 46.5189 45.0749 46.7012 44.9525 46.9277C44.8327 47.1517 44.7716 47.3978 44.7689 47.666V48.498C44.7689 48.847 44.8327 49.1465 44.9604 49.3965C45.088 49.6439 45.2663 49.834 45.4955 49.9668C45.7247 50.097 45.9929 50.1621 46.3002 50.1621C46.5059 50.1621 46.6921 50.1335 46.8588 50.0762C47.0255 50.0163 47.17 49.929 47.2924 49.8145C47.4148 49.6999 47.5072 49.5579 47.5697 49.3887L48.89 49.5371C48.8067 49.8861 48.6479 50.1908 48.4135 50.4512C48.1817 50.709 47.8848 50.9095 47.5229 51.0527C47.1609 51.1934 46.7468 51.2637 46.2807 51.2637ZM55.3324 45.1465L53.1957 51.1465H51.6332L49.4965 45.1465H51.0043L52.3832 49.6035H52.4457L53.8285 45.1465H55.3324ZM58.7631 51.2637C58.1615 51.2637 57.642 51.1387 57.2045 50.8887C56.7696 50.6361 56.435 50.2793 56.2006 49.8184C55.9662 49.3548 55.849 48.8092 55.849 48.1816C55.849 47.5645 55.9662 47.0228 56.2006 46.5566C56.4376 46.0879 56.7683 45.7233 57.1928 45.4629C57.6173 45.1999 58.116 45.0684 58.6889 45.0684C59.0587 45.0684 59.4076 45.1283 59.7357 45.248C60.0665 45.3652 60.3581 45.5475 60.6107 45.7949C60.866 46.0423 61.0665 46.3574 61.2123 46.7402C61.3581 47.1204 61.4311 47.5736 61.4311 48.0996V48.5332H56.5131V47.5801H60.0756C60.073 47.3092 60.0144 47.0684 59.8998 46.8574C59.7852 46.6439 59.6251 46.4759 59.4193 46.3535C59.2162 46.2311 58.9792 46.1699 58.7084 46.1699C58.4193 46.1699 58.1654 46.2402 57.9467 46.3809C57.7279 46.5189 57.5574 46.7012 57.435 46.9277C57.3152 47.1517 57.254 47.3978 57.2514 47.666V48.498C57.2514 48.847 57.3152 49.1465 57.4428 49.3965C57.5704 49.6439 57.7488 49.834 57.9779 49.9668C58.2071 50.097 58.4753 50.1621 58.7826 50.1621C58.9883 50.1621 59.1745 50.1335 59.3412 50.0762C59.5079 50.0163 59.6524 49.929 59.7748 49.8145C59.8972 49.6999 59.9897 49.5579 60.0522 49.3887L61.3725 49.5371C61.2891 49.8861 61.1303 50.1908 60.8959 50.4512C60.6641 50.709 60.3673 50.9095 60.0053 51.0527C59.6433 51.1934 59.2292 51.2637 58.7631 51.2637ZM64.0414 43.1465V51.1465H62.6273V43.1465H64.0414ZM50.7226 64.2559C50.1418 64.2559 49.6262 64.1582 49.1757 63.9629C48.7278 63.7676 48.3762 63.5007 48.121 63.1621C47.8684 62.821 47.7434 62.4342 47.746 62.002C47.7434 61.666 47.8163 61.3574 47.9647 61.0762C48.1132 60.7949 48.3137 60.5605 48.5663 60.373C48.8215 60.1829 49.1054 60.0618 49.4179 60.0098V59.9551C49.0064 59.8639 48.6731 59.6543 48.4179 59.3262C48.1653 58.9954 48.0403 58.6139 48.0429 58.1816C48.0403 57.7702 48.1549 57.403 48.3866 57.0801C48.6184 56.7572 48.9361 56.5033 49.3397 56.3184C49.7434 56.1309 50.2043 56.0371 50.7226 56.0371C51.2356 56.0371 51.6926 56.1309 52.0937 56.3184C52.4973 56.5033 52.815 56.7572 53.0468 57.0801C53.2812 57.403 53.3983 57.7702 53.3983 58.1816C53.3983 58.6139 53.2694 58.9954 53.0116 59.3262C52.7564 59.6543 52.427 59.8639 52.0233 59.9551V60.0098C52.3358 60.0618 52.6171 60.1829 52.8671 60.373C53.1197 60.5605 53.3202 60.7949 53.4687 61.0762C53.6197 61.3574 53.6952 61.666 53.6952 62.002C53.6952 62.4342 53.5676 62.821 53.3124 63.1621C53.0572 63.5007 52.7056 63.7676 52.2577 63.9629C51.8124 64.1582 51.3007 64.2559 50.7226 64.2559ZM50.7226 63.1387C51.022 63.1387 51.2825 63.0879 51.5038 62.9863C51.7252 62.8822 51.897 62.7363 52.0194 62.5488C52.1418 62.3613 52.2043 62.1452 52.2069 61.9004C52.2043 61.6452 52.1379 61.4199 52.0077 61.2246C51.8801 61.0267 51.7043 60.8717 51.4804 60.7598C51.259 60.6478 51.0064 60.5918 50.7226 60.5918C50.4361 60.5918 50.1809 60.6478 49.9569 60.7598C49.733 60.8717 49.5559 61.0267 49.4257 61.2246C49.2981 61.4199 49.2356 61.6452 49.2382 61.9004C49.2356 62.1452 49.2955 62.3613 49.4179 62.5488C49.5403 62.7337 49.7121 62.8783 49.9335 62.9824C50.1575 63.0866 50.4205 63.1387 50.7226 63.1387ZM50.7226 59.4941C50.9674 59.4941 51.1835 59.4447 51.371 59.3457C51.5611 59.2467 51.7108 59.1087 51.8202 58.9316C51.9296 58.7546 51.9856 58.5501 51.9882 58.3184C51.9856 58.0892 51.9309 57.8887 51.8241 57.7168C51.7174 57.5423 51.5689 57.4082 51.3788 57.3145C51.1887 57.2181 50.97 57.1699 50.7226 57.1699C50.47 57.1699 50.2473 57.2181 50.0546 57.3145C49.8645 57.4082 49.7161 57.5423 49.6093 57.7168C49.5051 57.8887 49.4543 58.0892 49.4569 58.3184C49.4543 58.5501 49.5064 58.7546 49.6132 58.9316C49.7226 59.1061 49.8723 59.2441 50.0624 59.3457C50.2551 59.4447 50.4752 59.4941 50.7226 59.4941Z"
    fill="black" />
  <defs>
    <filter id="filter0_d_366_72" x="-18" y="0.435547" width="137.436" height="137.436" filterUnits="userSpaceOnUse"
      color-interpolation-filters="sRGB">
      <feFlood flood-opacity="0" result="BackgroundImageFix" />
      <feColorMatrix in="SourceAlpha" type="matrix" values="0 0 0 0 0 0 0 0 0 0 0 0 0 0 0 0 0 0 127 0"
        result="hardAlpha" />
      <feOffset dy="15" />
      <feGaussianBlur stdDeviation="17.5" />
      <feComposite in2="hardAlpha" operator="out" />
      <feColorMatrix type="matrix" values="0 0 0 0 1 0 0 0 0 0.750335 0 0 0 0 0.0812337 0 0 0 0.28 0" />
      <feBlend mode="normal" in2="BackgroundImageFix" result="effect1_dropShadow_366_72" />
      <feBlend mode="normal" in="SourceGraphic" in2="effect1_dropShadow_366_72" result="shape" />
    </filter>
  </defs>
</svg>