<svg viewBox="0 0 53 53" fill="none" xmlns="http://www.w3.org/2000/svg">
  <path
    d="M46.6301 4.19402C46.5283 4.00175 46.3896 3.83141 46.222 3.69273C46.0544 3.55405 45.8611 3.44974 45.6531 3.38576C45.4452 3.32178 45.2267 3.29938 45.0101 3.31984C44.7935 3.34031 44.5831 3.40323 44.3908 3.50502C44.1985 3.60681 44.0282 3.74548 43.8895 3.9131C43.7508 4.08072 43.6465 4.27402 43.5826 4.48195C43.5186 4.68988 43.4962 4.90838 43.5166 5.12497C43.5371 5.34156 43.6 5.552 43.7018 5.74427C45.4078 8.97065 46.375 12.6508 46.375 16.5629C46.375 20.4716 45.4078 24.1551 43.7018 27.3815C43.6 27.5738 43.5371 27.7842 43.5166 28.0008C43.4962 28.2174 43.5186 28.4359 43.5826 28.6438C43.6465 28.8518 43.7508 29.0451 43.8895 29.2127C44.0282 29.3803 44.1985 29.519 44.3908 29.6208C44.7791 29.8264 45.2332 29.8693 45.6531 29.74C46.0731 29.6108 46.4245 29.3201 46.6301 28.9318C48.6441 25.1204 49.6939 20.8737 49.6875 16.5629C49.6939 12.2521 48.6441 8.00539 46.6301 4.19402ZM23.1875 6.6254C20.5519 6.6254 18.0243 7.67238 16.1606 9.53602C14.297 11.3997 13.25 13.9273 13.25 16.5629C13.25 19.1985 14.297 21.7261 16.1606 23.5898C18.0243 25.4534 20.5519 26.5004 23.1875 26.5004C25.8231 26.5004 28.3507 25.4534 30.2144 23.5898C32.078 21.7261 33.125 19.1985 33.125 16.5629C33.125 13.9273 32.078 11.3997 30.2144 9.53602C28.3507 7.67238 25.8231 6.6254 23.1875 6.6254ZM37.3683 7.83777C37.564 7.7423 37.7767 7.68636 37.994 7.67316C38.2114 7.65995 38.4292 7.68973 38.635 7.76081C38.8409 7.83188 39.0307 7.94284 39.1936 8.08735C39.3565 8.23186 39.4893 8.40707 39.5844 8.60296C40.7537 11.0111 41.4063 13.7108 41.4063 16.5629C41.4063 19.4116 40.7537 22.1146 39.5844 24.5228C39.4891 24.7186 39.3562 24.8937 39.1933 25.0381C39.0304 25.1824 38.8406 25.2933 38.6348 25.3644C38.429 25.4354 38.2113 25.4653 37.994 25.4522C37.7767 25.4391 37.5641 25.3833 37.3683 25.288C37.1726 25.1928 36.9975 25.0599 36.8531 24.8969C36.7087 24.734 36.5978 24.5442 36.5268 24.3385C36.4557 24.1327 36.4259 23.9149 36.439 23.6976C36.4521 23.4803 36.5079 23.2677 36.6031 23.072C37.588 21.0437 38.0978 18.8177 38.0938 16.5629C38.0978 14.3081 37.588 12.0821 36.6031 10.0538C36.5077 9.85812 36.4517 9.6455 36.4385 9.42814C36.4253 9.21078 36.4551 8.99296 36.5262 8.78712C36.5972 8.58129 36.7082 8.39149 36.8527 8.22859C36.9972 8.06569 37.1724 7.93288 37.3683 7.83777ZM39.75 34.7816C39.75 33.4639 39.2265 32.2 38.2947 31.2682C37.3629 30.3364 36.099 29.8129 34.7813 29.8129H11.5938C10.276 29.8129 9.01213 30.3364 8.08031 31.2682C7.14849 32.2 6.625 33.4639 6.625 34.7816V36.4379C6.625 42.9668 12.7863 49.6879 23.1875 49.6879C33.5888 49.6879 39.75 42.9668 39.75 36.4379V34.7816Z"
    fill="#6839A7" />
</svg>