<svg viewBox="0 0 53 53" fill="none" xmlns="http://www.w3.org/2000/svg">
  <path
    d="M11.5352 4.44454C11.2992 4.44137 11.0649 4.48554 10.8462 4.57444C10.6275 4.66334 10.4288 4.79516 10.262 4.96212C9.93073 5.29343 9.74465 5.74273 9.74465 6.21121C9.74465 6.67969 9.93073 7.129 10.262 7.4603C10.5933 7.79153 11.0426 7.97761 11.5111 7.97761C11.9795 7.97761 12.4288 7.79153 12.7601 7.4603C13.0914 7.129 13.2775 6.67969 13.2775 6.21121C13.2775 5.74273 13.0914 5.29343 12.7601 4.96212C12.4348 4.63665 11.9953 4.45095 11.5352 4.44454ZM41.5168 4.44454C41.2802 4.44091 41.0452 4.48485 40.8259 4.57376C40.6066 4.66267 40.4074 4.79474 40.2401 4.96212C39.9089 5.29343 39.7228 5.74273 39.7228 6.21121C39.7228 6.67969 39.9089 7.129 40.2401 7.4603C40.5714 7.79153 41.0207 7.97761 41.4892 7.97761C41.9577 7.97761 42.407 7.79153 42.7383 7.4603C43.0695 7.129 43.2556 6.67969 43.2556 6.21121C43.2556 5.74273 43.0695 5.29343 42.7383 4.96212C42.4138 4.63747 41.9757 4.45184 41.5168 4.44454ZM26.5001 5.30027C17.718 5.30027 10.6001 12.4182 10.6001 21.2003C10.6001 30.0336 17.6668 33.5669 21.2001 40.6336H31.8001C35.3334 33.5669 42.4001 30.0336 42.4001 21.2003C42.4001 12.4182 35.2822 5.30027 26.5001 5.30027ZM26.5001 10.6003V19.4336H33.5668L26.5001 31.8003V22.9669H19.4334L26.5001 10.6003ZM5.30011 19.4336C4.83156 19.4336 4.38221 19.6197 4.05089 19.9511C3.71958 20.2824 3.53345 20.7317 3.53345 21.2003C3.53345 21.6688 3.71958 22.1182 4.05089 22.4495C4.38221 22.7808 4.83156 22.9669 5.30011 22.9669C5.76866 22.9669 6.21802 22.7808 6.54934 22.4495C6.88065 22.1182 7.06678 21.6688 7.06678 21.2003C7.06678 20.7317 6.88065 20.2824 6.54934 19.9511C6.21802 19.6197 5.76866 19.4336 5.30011 19.4336ZM47.7001 19.4336C47.2316 19.4336 46.7822 19.6197 46.4509 19.9511C46.1196 20.2824 45.9334 20.7317 45.9334 21.2003C45.9334 21.6688 46.1196 22.1182 46.4509 22.4495C46.7822 22.7808 47.2316 22.9669 47.7001 22.9669C48.1687 22.9669 48.618 22.7808 48.9493 22.4495C49.2807 22.1182 49.4668 21.6688 49.4668 21.2003C49.4668 20.7317 49.2807 20.2824 48.9493 19.9511C48.618 19.6197 48.1687 19.4336 47.7001 19.4336ZM11.5352 34.4227C11.2986 34.419 11.0636 34.463 10.8443 34.5519C10.625 34.6408 10.4258 34.7729 10.2585 34.9402C9.92728 35.2715 9.7412 35.7208 9.7412 36.1893C9.7412 36.6578 9.92728 37.1071 10.2585 37.4384C10.4226 37.603 10.6176 37.7335 10.8322 37.8225C11.0468 37.9116 11.2769 37.9575 11.5093 37.9575C11.7417 37.9575 11.9718 37.9116 12.1864 37.8225C12.4011 37.7335 12.596 37.603 12.7601 37.4384C13.0914 37.1071 13.2775 36.6578 13.2775 36.1893C13.2775 35.7208 13.0914 35.2715 12.7601 34.9402C12.4348 34.6148 11.9953 34.4291 11.5352 34.4227ZM41.5133 34.4261C41.2775 34.4225 41.0434 34.4661 40.8247 34.5544C40.606 34.6427 40.4073 34.7739 40.2401 34.9402C40.0756 35.1044 39.945 35.2993 39.856 35.5139C39.7669 35.7286 39.7211 35.9587 39.7211 36.1911C39.7211 36.4234 39.7669 36.6535 39.856 36.8682C39.945 37.0828 40.0756 37.2778 40.2401 37.4419C40.5714 37.7731 41.0207 37.9592 41.4892 37.9592C41.9577 37.9592 42.407 37.7731 42.7383 37.4419C42.9028 37.2778 43.0333 37.0828 43.1224 36.8682C43.2115 36.6535 43.2573 36.4234 43.2573 36.1911C43.2573 35.9587 43.2115 35.7286 43.1224 35.5139C43.0333 35.2993 42.9028 35.1044 42.7383 34.9402C42.4124 34.616 41.973 34.4316 41.5133 34.4261ZM21.2001 44.1669V45.9336C21.2001 47.8858 22.7813 49.4669 24.7334 49.4669C24.7334 49.9355 24.9196 50.3848 25.2509 50.7162C25.5822 51.0475 26.0316 51.2336 26.5001 51.2336C26.9687 51.2336 27.418 51.0475 27.7493 50.7162C28.0807 50.3848 28.2668 49.9355 28.2668 49.4669C30.2189 49.4669 31.8001 47.8858 31.8001 45.9336V44.1669H21.2001Z"
    fill="#4C2185" />
</svg>