<svg width="26" height="12" viewBox="0 0 26 12" fill="none" xmlns="http://www.w3.org/2000/svg">
  <path
    d="M19.7143 5.14286C21.1371 5.14286 22.2771 3.99429 22.2771 2.57143C22.2771 1.14857 21.1371 0 19.7143 0C18.2914 0 17.1428 1.14857 17.1428 2.57143C17.1428 3.99429 18.2914 5.14286 19.7143 5.14286ZM12.8571 5.14286C14.28 5.14286 15.42 3.99429 15.42 2.57143C15.42 1.14857 14.28 0 12.8571 0C11.4343 0 10.2857 1.14857 10.2857 2.57143C10.2857 3.99429 11.4343 5.14286 12.8571 5.14286ZM12.8571 6.85714C10.86 6.85714 6.85712 7.86 6.85712 9.85714V12H18.8571V9.85714C18.8571 7.86 14.8543 6.85714 12.8571 6.85714ZM19.7143 6.85714C19.4657 6.85714 19.1828 6.87429 18.8828 6.9C19.8771 7.62 20.5714 8.58857 20.5714 9.85714V12H25.7143V9.85714C25.7143 7.86 21.7114 6.85714 19.7143 6.85714Z"
    fill="white" />
  <path
    d="M5.99997 5.14286C4.57712 5.14286 3.43712 3.99429 3.43712 2.57143C3.43712 1.14857 4.57712 0 5.99997 0C7.42283 0 8.5714 1.14857 8.5714 2.57143C8.5714 3.99429 7.42283 5.14286 5.99997 5.14286ZM12.8571 5.14286C11.4343 5.14286 10.2943 3.99429 10.2943 2.57143C10.2943 1.14857 11.4343 0 12.8571 0C14.28 0 15.4285 1.14857 15.4285 2.57143C15.4285 3.99429 14.28 5.14286 12.8571 5.14286ZM12.8571 6.85714C14.8543 6.85714 18.8571 7.86 18.8571 9.85714V12H6.85712V9.85714C6.85712 7.86 10.86 6.85714 12.8571 6.85714ZM5.99997 6.85714C6.24854 6.85714 6.5314 6.87429 6.8314 6.9C5.83712 7.62 5.14283 8.58857 5.14283 9.85714V12H-2.67029e-05V9.85714C-2.67029e-05 7.86 4.00283 6.85714 5.99997 6.85714Z"
    fill="white" />
</svg>